<svg xmlns="http://www.w3.org/2000/svg" viewBox="0 0 64 64" role="img" aria-label="Lugn och Trygg favicon">
  <defs>
    <linearGradient id="bg" x1="8" y1="6" x2="56" y2="58" gradientUnits="userSpaceOnUse">
      <stop offset="0" stop-color="#0f766e" />
      <stop offset="1" stop-color="#14b8a6" />
    </linearGradient>
    <linearGradient id="heart" x1="24" y1="20" x2="43" y2="40" gradientUnits="userSpaceOnUse">
      <stop offset="0" stop-color="#fef2f2" />
      <stop offset="1" stop-color="#ffffff" />
    </linearGradient>
  </defs>

  <rect x="4" y="4" width="56" height="56" rx="16" fill="url(#bg)" />

  <path d="M32 14c8.3 0 14.8 4 14.8 4v10.4c0 13.2-11.9 19.6-14.8 21-2.9-1.4-14.8-7.8-14.8-21V18s6.5-4 14.8-4z"
        fill="rgba(255,255,255,0.18)" />

  <path d="M32 24.4c-1.9-2.6-6-2.6-7.9.2-2 2.9-1.1 6.4 1.1 8.5l6.8 6.5 6.8-6.5c2.2-2.1 3.1-5.6 1.1-8.5-1.9-2.8-6-2.8-7.9-.2z"
        fill="url(#heart)" />

  <rect x="29.5" y="16.2" width="5" height="12" rx="2.5" fill="#ffffff" opacity="0.95" />
</svg>
